
<svg width="16" height="16" viewBox="0 0 16 16" xmlns="http://www.w3.org/2000/svg">
  <defs>
    <linearGradient id="grad1" x1="0%" y1="0%" x2="100%" y2="100%">
      <stop offset="0%" style="stop-color:#FF6B35;stop-opacity:1" />
      <stop offset="100%" style="stop-color:#FF8C42;stop-opacity:1" />
    </linearGradient>
  </defs>
  <rect width="16" height="16" rx="3" fill="url(#grad1)"/>
  <g transform="translate(2, 2) scale(0.075)">
    <rect x="0" y="0" width="400" height="500" rx="20" fill="white" stroke="#E5E7EB" stroke-width="8"/>
    <rect x="40" y="80" width="320" height="12" rx="6" fill="#6B7280"/>
    <rect x="40" y="120" width="280" height="12" rx="6" fill="#9CA3AF"/>
    <rect x="40" y="160" width="300" height="12" rx="6" fill="#9CA3AF"/>
    <rect x="40" y="200" width="260" height="12" rx="6" fill="#9CA3AF"/>
    <rect x="40" y="240" width="320" height="12" rx="6" fill="#9CA3AF"/>
    <rect x="40" y="280" width="240" height="12" rx="6" fill="#9CA3AF"/>
    <rect x="40" y="320" width="320" height="12" rx="6" fill="#9CA3AF"/>
    <rect x="40" y="360" width="200" height="12" rx="6" fill="#9CA3AF"/>
    <circle cx="320" cy="120" r="30" fill="#4F46E5"/>
    <path d="M310 120 L315 125 L330 110" stroke="white" stroke-width="6" fill="none" stroke-linecap="round" stroke-linejoin="round"/>
  </g>
</svg>
